<?xml version="1.0" encoding="utf-8"?>
<!-- Generator: Adobe Illustrator 25.4.1, SVG Export Plug-In . SVG Version: 6.00 Build 0)  -->
<svg version="1.1" id="Ebene_1" xmlns="http://www.w3.org/2000/svg" xmlns:xlink="http://www.w3.org/1999/xlink" x="0px" y="0px"
	 viewBox="0 0 50 50" style="enable-background:new 0 0 50 50;" xml:space="preserve">
<style type="text/css">
	.st0{fill:#F9D3E6;}
	.st1{fill:#D73E86;}
	.st2{fill:#1D1D1B;}
</style>
<rect class="st0" width="50" height="50"/>
<g>
	<path class="st1" d="M-154.2,7.2h14.5V11h-18.6v-26.9h4L-154.2,7.2L-154.2,7.2z"/>
	<path class="st1" d="M-140.6,19.6v3.9h-16.9v-3.9H-140.6z"/>
	<path class="st1" d="M-135.2,7.2h11.9c5.6,0,9,2.6,9,7.9c0,3.5-1.8,5.5-4.4,6.5c2.6,0.6,4,2,4,5.6v6.9h-4v-6.9
		c0-2.9-1.4-3.8-5.4-3.8h-7.2v10.7h-4C-135.3,34.1-135.3,7.2-135.2,7.2z M-123.3,19.6c3.4,0,5-1.9,5-4.6c0-2.5-1.6-4-5-4h-7.9v8.6
		H-123.3z"/>
</g>
<rect x="-195.7" y="-288.9" class="st0" width="453.5" height="226.8"/>
<g>
	<g>
		<path class="st2" d="M-23.2-190.3c-2,8.3-8.5,13.3-16.6,13.3c-10.7,0-18.9-7.8-18.9-20s8.2-20,18.9-20c8.2,0,14.7,5,16.7,13.4
			l-6.4,1.4c-1.7-5.3-5.8-8.3-10.3-8.3c-6.4,0-12,4.8-12,13.4c0,8.7,5.6,13.4,12,13.4c4.5,0,8.5-2.9,10.3-8.2L-23.2-190.3z"/>
		<path class="st2" d="M-19.5-197c0-12.2,8.5-20,19.2-20c10.7,0,19.2,7.8,19.2,20s-8.5,20-19.2,20C-11-177-19.5-184.8-19.5-197z
			 M12-197c0-8.7-5.4-13.4-12.4-13.4c-6.9,0-12.3,4.7-12.3,13.4c0,8.8,5.4,13.4,12.3,13.4C6.6-183.6,12-188.3,12-197z"/>
		<path class="st2" d="M18.7-216.5h7.4l10.1,28l10.1-28h7.3l-14.2,39h-6.4L18.7-216.5z"/>
		<path class="st2" d="M64.1-184.1h21.4v6.6H57.2v-39h28.3v6.6H64.1v9.7h17.5v6.5H64.1V-184.1z"/>
		<path class="st2" d="M90.2-216.5h17.3c8.3,0,13.3,3.9,13.3,11.6c0,4.4-2,7.4-5,9c2.8,1.1,4.5,3.4,4.5,8v10.3h-6.9v-10.3
			c0-3.6-1.7-4.7-7-4.7h-9.4v15h-6.9V-216.5z M107.6-199.1c4.4,0,6.4-2.4,6.4-5.8c0-3.2-2-5-6.4-5H97.1v10.8H107.6z"/>
	</g>
	<g>
		<path class="st2" d="M-84.6-148v13.5h-6.8V-148l-13.8-25.5h7.8l9.4,18l9.4-18h7.8L-84.6-148z"/>
		<path class="st2" d="M-72.6-154c0-12.2,8.5-20,19.2-20c10.7,0,19.2,7.8,19.2,20s-8.5,20-19.2,20C-64.1-134-72.6-141.8-72.6-154z
			 M-41.1-154c0-8.7-5.4-13.4-12.4-13.4c-6.9,0-12.3,4.7-12.3,13.4c0,8.8,5.4,13.4,12.3,13.4C-46.5-140.6-41.1-145.3-41.1-154z"/>
		<path class="st2" d="M-4-173.5h6.9v23.7C2.9-138.6-4-134-13.3-134c-9.5,0-16.4-4.6-16.4-15.8v-23.7h6.9v23.7
			c0,7.5,4.4,9.2,9.5,9.2c4.9,0,9.2-1.7,9.2-9.2V-173.5z"/>
		<path class="st2" d="M8.8-173.5h17.3c8.3,0,13.3,3.9,13.3,11.6c0,4.4-2,7.4-5,9c2.8,1.1,4.5,3.4,4.5,8v10.3H32v-10.3
			c0-3.6-1.7-4.7-7-4.7h-9.4v15H8.8V-173.5z M26.2-156.1c4.4,0,6.4-2.4,6.4-5.8c0-3.2-2-5-6.4-5H15.7v10.8H26.2z"/>
		<path class="st2" d="M49.6-148.4c0.7,4.6,4,7.8,8.9,7.8c4.3,0,6.5-2,6.5-4.8c0-2.9-2.6-4-6.6-5.3c-6.2-1.9-13.8-4.7-13.8-12.4
			c0-5.7,4.7-10.9,13-10.9c8.1,0,12.4,4.9,12.8,12.3l-6.4,1.4c-0.4-5-3-7.1-6.7-7.1c-3.2,0-6,1.4-6,4.3c0,2.5,2.1,3.7,8.9,6
			c5.2,1.7,11.6,3.8,11.6,12c0,5.9-4.1,11.2-13.3,11.2c-11.2,0-15-8.5-15.4-13L49.6-148.4z"/>
		<path class="st2" d="M83.8-141.1h21.4v6.6H76.8v-39h28.3v6.6H83.8v9.7h17.5v6.5H83.8V-141.1z"/>
		<path class="st2" d="M116.8-141.1h18.3v6.6h-25.2v-39h6.9V-141.1z"/>
		<path class="st2" d="M167.5-166.9h-21.4v9.7h17.5v6.5h-17.5v16.1h-6.9v-39h28.3V-166.9z"/>
	</g>
</g>
<g>
	<path class="st2" d="M47.6,17c-1.1,4.6-4.7,7.4-9.2,7.4C32.5,24.3,28,20,28,13.3S32.5,2.2,38.5,2.2c4.5,0,8.1,2.8,9.2,7.4l-3.5,0.8
		c-1-2.9-3.2-4.6-5.7-4.6c-3.5,0-6.6,2.6-6.6,7.4c0,4.8,3.1,7.4,6.6,7.4c2.5,0,4.7-1.6,5.7-4.5L47.6,17z"/>
	<path class="st2" d="M13.7,40.3v7.5H9.9v-7.5L2.3,26.3h4.3l5.2,9.9l5.2-9.9h4.3L13.7,40.3z"/>
</g>
</svg>
