<?xml version="1.0" encoding="utf-8"?>
<!-- Generator: Adobe Illustrator 25.2.2, SVG Export Plug-In . SVG Version: 6.00 Build 0)  -->
<svg version="1.1" id="Ebene_1" xmlns="http://www.w3.org/2000/svg" xmlns:xlink="http://www.w3.org/1999/xlink" x="0px" y="0px"
	 viewBox="0 0 50 50" style="enable-background:new 0 0 50 50;" xml:space="preserve">
<style type="text/css">
	.st0{fill:#D73E86;}
</style>
<g>
	<path class="st0" d="M7.1,23.1h14.5v3.8H3V0h4V23.1z"/>
	<path class="st0" d="M20.7,35.5v3.9H3.8v-3.9H20.7z"/>
	<path class="st0" d="M26.1,23.1H38c5.6,0,9,2.6,9,7.9c0,3.5-1.8,5.5-4.4,6.5c2.6,0.6,4,2,4,5.6V50h-4v-6.9c0-2.9-1.4-3.8-5.4-3.8
		H30V50h-4C26,50,26,23.1,26.1,23.1z M38,35.5c3.4,0,5-1.9,5-4.6c0-2.5-1.6-4-5-4h-7.9v8.6H38z"/>
</g>
<g>
	<polygon class="st0" points="-385,-109.3 -434.7,-125.2 -484.4,-109.3 -434.7,-93.4 	"/>
	<polygon class="st0" points="-382.4,-89.7 -434.5,-92.2 -478.4,-63.9 -426.3,-61.4 	"/>
	<polygon class="st0" points="-374.8,-71.3 -425.8,-60.3 -460.9,-21.6 -409.9,-32.7 	"/>
	<polygon class="st0" points="-362.7,-55.6 -409.1,-31.7 -433,14.7 -386.6,-9.2 	"/>
	<polygon class="st0" points="-347,-43.5 -385.6,-8.4 -396.7,42.6 -358,7.5 	"/>
	<polygon class="st0" points="-328.6,-35.9 -356.9,8 -354.4,60.1 -326.1,16.2 	"/>
	<polygon class="st0" points="-309,-33.4 -324.9,16.4 -309,66.1 -293.1,16.4 	"/>
	<polygon class="st0" points="-289.3,-35.9 -291.8,16.2 -263.6,60.1 -261.1,8 	"/>
	<polygon class="st0" points="-271,-43.5 -259.9,7.5 -221.3,42.6 -232.4,-8.4 	"/>
	<polygon class="st0" points="-255.2,-55.6 -231.3,-9.2 -185,14.7 -208.9,-31.7 	"/>
	<polygon class="st0" points="-255.2,-163.1 -208.9,-187 -185,-233.4 -231.3,-209.5 	"/>
	<polygon class="st0" points="-271,-175.1 -232.4,-210.2 -221.3,-261.2 -259.9,-226.1 	"/>
	<polygon class="st0" points="-289.3,-182.7 -261.1,-226.6 -263.6,-278.8 -291.8,-234.9 	"/>
	<polygon class="st0" points="-309,-185.3 -293.1,-235 -309,-284.7 -324.9,-235 	"/>
	<polygon class="st0" points="-328.6,-182.7 -326.1,-234.9 -354.4,-278.8 -356.9,-226.6 	"/>
	<polygon class="st0" points="-347,-175.1 -358,-226.1 -396.7,-261.2 -385.6,-210.2 	"/>
	<polygon class="st0" points="-362.7,-163.1 -386.6,-209.5 -433,-233.4 -409.1,-187 	"/>
	<polygon class="st0" points="-374.8,-147.3 -409.9,-186 -460.9,-197 -425.8,-158.4 	"/>
	<polygon class="st0" points="-382.4,-129 -426.3,-157.2 -478.4,-154.7 -434.5,-126.5 	"/>
</g>
<text transform="matrix(1 0 0 1 -30.2506 -51.975)"><tspan x="0" y="0" class="st0" style="font-family:'Syne04-Medium'; font-size:44.2159px;">cover</tspan><tspan x="143.5" y="0" class="st0" style="font-family:'Ortica03-Regular'; font-size:44.2159px;">–</tspan><tspan x="-19.7" y="31.8" class="st0" style="font-family:'Ortica03-Regular'; font-size:41.1208px;">yourself</tspan></text>
</svg>
