<?xml version="1.0" encoding="utf-8"?>
<!-- Generator: Adobe Illustrator 25.4.1, SVG Export Plug-In . SVG Version: 6.00 Build 0)  -->
<svg version="1.1" id="Ebene_1" xmlns="http://www.w3.org/2000/svg" xmlns:xlink="http://www.w3.org/1999/xlink" x="0px" y="0px"
	 viewBox="0 0 50 50" style="enable-background:new 0 0 50 50;" xml:space="preserve">
<style type="text/css">
	.st0{fill:#1D1D1B;}
</style>
<path class="st0" d="M7.1,23.1h14.5v3.8H3.1V0h4V23.1z"/>
<path class="st0" d="M20.7,35.5v3.9H3.8v-3.9H20.7z"/>
<path class="st0" d="M26.1,23.1h11.9c5.6,0,9,2.6,9,7.9c0,3.5-1.8,5.5-4.4,6.5c2.6,0.6,4,2,4,5.6V50h-4v-6.9c0-2.9-1.4-3.8-5.4-3.8
	h-7.1V50h-4V23.1z M38.1,35.5c3.4,0,5-1.9,5-4.6c0-2.5-1.6-4-5-4h-7.9v8.6H38.1z"/>
</svg>
